<svg id="Layer_1" version="1.1" viewBox="0 0 30 30" xml:space="preserve" xmlns="http://www.w3.org/2000/svg"><style>.st0{fill:#f39c11}.st1{fill:#fabe3a}</style><path class="st0" d="M14.855 1.227c.554.823 1.641 2.562 2.162 4.258-.139.137-.247.268-.365.401-.071.079-.155.162-.219.24a5.37 5.37 0 00-.499.709 4.592 4.592 0 00-.325.718c-.011.031-.029.056-.039.087a7.39 7.39 0 00-1.585.053 4.72 4.72 0 00-.417-.965 6.004 6.004 0 00-.88-1.139c.564-1.725 1.63-3.516 2.167-4.362zm12.374 6.685c-.454.962-1.46 2.911-2.732 4.277-.201-.07-.379-.111-.566-.162-.111-.031-.232-.073-.339-.097a5.527 5.527 0 00-.92-.141 4.526 4.526 0 00-.835.037c-.034.004-.246.05-.281.055a9.454 9.454 0 00-.928-1.578c.266-.288.683-.605.859-.918.224-.398.242-.889.395-1.45 1.888-.302 4.281-.133 5.347-.023zm-24.562.217c.996-.213 3.066-.129 4.845.046.063.193.135.353.204.525.041.103.079.219.123.314.133.292.273.556.427.783.147.219.322.42.513.614.023.024.181.158.205.181a9.051 9.051 0 00-.662 1.623c-.374-.035-.857-.169-1.198-.121-.433.061-.817.332-1.334.542-1.326-1.26-2.587-3.631-3.123-4.507zm.481 14.075c.317-.968 1.43-2.715 2.476-4.164.199.042.374.06.557.087.109.016.229.041.333.052.319.032.617.043.891.025.263-.017.525-.068.789-.134.032-.008.228-.077.26-.086.294.474.661.95 1.07 1.389-.218.305-.577.656-.707.975-.165.405-.124.873-.202 1.425-1.757.51-4.44.409-5.467.431zm11.906 6.793c-.647-.787-1.525-2.663-2.188-4.322.142-.146.251-.283.372-.424.072-.084.158-.171.223-.254a5.46 5.46 0 00.499-.739c.127-.231.224-.479.309-.738.01-.031.057-.234.067-.266a9.043 9.043 0 001.746-.159c.141.348.244.839.444 1.12.253.356.671.573 1.094.935-.51 1.758-2.034 3.968-2.566 4.847zm12.032-7.185c-.998.205-3.067.104-4.844-.085-.062-.194-.133-.354-.201-.527-.04-.103-.078-.22-.12-.315a5.386 5.386 0 00-.42-.786 4.342 4.342 0 00-.508-.618c-.023-.024-.18-.16-.204-.183.266-.49.497-1.045.676-1.618.373.038.856.176 1.197.131.433-.057.82-.326 1.338-.531 1.316 1.27 2.558 3.651 3.086 4.532z"/><path class="st1" d="M12.079 5.893c.176.172.326.335.463.497.039.047.071.093.108.14.091.115.176.231.25.348.038.06.072.121.106.182a3.586 3.586 0 01.254.546c.015.04.026.085.04.125a7.608 7.608 0 00-1.257.423 8.005 8.005 0 00-.785.395c-.373.217-.73.469-1.089.77a.45.45 0 00-.075.057l-.005.003c-.011.011-.022.022-.031.034a7.805 7.805 0 00-.84.867c-.412-.512-.672-1.082-.888-1.93v-.001l-.034-.139v-.003c-.43-1.808-.407-4.018-.366-5.056.925.45 2.85 1.47 4.149 2.742zm9.577 2.171a7.71 7.71 0 01-.233.69c-.024.061-.052.115-.077.173a4.654 4.654 0 01-.201.413c-.037.066-.078.13-.118.193a3.851 3.851 0 01-.386.517c-.03.034-.066.068-.098.101a8.358 8.358 0 00-1.811-1.509 8.276 8.276 0 00-1.282-.636.423.423 0 00-.092-.041l-.006-.003a.42.42 0 00-.048-.012 8.403 8.403 0 00-1.245-.352c.274-.651.679-1.186 1.37-1.822h.001l.114-.104.001-.001.001-.001c1.488-1.326 3.584-2.43 4.584-2.919.047 1.104.065 3.439-.474 5.313zm2.391 9.126c-.273.047-.52.078-.758.096-.069.005-.132.004-.198.007a4.842 4.842 0 01-.482 0 4.515 4.515 0 01-.901-.15c-.046-.013-.094-.032-.141-.046.191-.47.338-.947.44-1.425.068-.319.122-.643.155-.976.048-.483.052-.975.013-1.5a.473.473 0 00-.003-.106v-.007c-.003-.017-.006-.034-.011-.051-.041-.456-.484-.906-.594-1.343.74-.039 1.785.104 2.701.465l.001.001.15.06h.002l.001.001c1.933.796 4.294 1.886 5.215 2.605-1.02.55-3.575 2.02-5.59 2.369zm-6.594 6.645a7.728 7.728 0 01-.481-.547c-.041-.051-.074-.102-.111-.153a4.646 4.646 0 01-.258-.381c-.039-.065-.073-.132-.108-.199a4.137 4.137 0 01-.256-.593c-.015-.043-.025-.091-.039-.135a8.43 8.43 0 002.213-.814 8.23 8.23 0 001.191-.792.459.459 0 00.082-.059l.006-.004a.29.29 0 00.034-.036c.337-.276.456-.867.742-1.187.427.563.872 1.465 1.078 2.381v.002l.033.15.001.001v.002c.405 1.951.808 4.397.732 5.508-.979-.51-3.506-1.741-4.859-3.144zm-9.075-1.93c.077-.252.158-.476.245-.686.025-.061.054-.114.08-.172.065-.143.133-.281.208-.41.038-.066.08-.128.121-.191a3.863 3.863 0 01.395-.51c.031-.034.068-.066.1-.1a8.388 8.388 0 001.785 1.54c.39.249.806.464 1.27.658a.475.475 0 00.091.043l.006.003c.016.005.032.01.048.013.405.161.98-.021 1.398.074-.285.646-.858 1.473-1.56 2.097l-.001.001-.115.101-.001.001-.002.001c-1.51 1.3-3.455 2.838-4.463 3.31-.028-1.103-.177-3.909.395-5.773zm-2.501-9.216c.258-.055.493-.093.718-.119.065-.008.126-.009.189-.014.157-.013.31-.02.459-.018.076.001.151.008.226.013a4.098 4.098 0 01.638.097c.044.01.091.027.136.039a8.407 8.407 0 00-.479 2.309 8.25 8.25 0 00.043 1.43.495.495 0 00.007.101v.007a.42.42 0 00.012.048c.056.433.495.846.615 1.257-.703.065-1.705-.034-2.591-.343l-.001-.001-.145-.052h-.002l-.002-.001c-1.87-.687-4.16-1.639-5.063-2.29.953-.561 3.333-2.056 5.24-2.463z"/><circle cx="15.016" cy="14.958" r="6.829" fill="#342000"/><circle cx="20.853" cy="15.902" transform="rotate(-15.213 20.857 15.905)" r=".492"/><circle cx="14.022" cy="13.289" transform="rotate(-60 14.022 13.29)" r=".492"/><circle cx="12.447" cy="14.508" transform="rotate(-60 12.447 14.509)" r=".492"/><circle cx="12.289" cy="16.291" transform="rotate(-60 12.29 16.291)" r=".492"/><circle cx="11.821" cy="18.3" transform="rotate(-60 11.821 18.3)" r=".492"/><circle cx="13.295" cy="10.208" transform="rotate(-60 13.295 10.209)" r=".492"/><circle cx="12.08" cy="9.789" transform="rotate(-60 12.08 9.79)" r=".492"/><circle cx="14.229" cy="11.223" transform="rotate(-60 14.229 11.224)" r=".492"/><circle cx="11.33" cy="10.806" transform="rotate(-60 11.33 10.806)" r=".492"/><circle cx="10.592" cy="15.312" transform="rotate(-60 10.592 15.312)" r=".492"/><circle cx="15.79" cy="12.132" transform="rotate(-15.219 15.787 12.13)" r=".492"/><circle cx="18.859" cy="13.263" transform="rotate(-15.213 18.863 13.265)" r=".492"/><circle cx="15.612" cy="14.483" transform="rotate(-15.213 15.615 14.485)" r=".492"/><circle cx="16.237" cy="13.289" transform="rotate(-15.213 16.24 13.291)" r=".492"/><circle cx="15.612" cy="16.021" transform="rotate(-15.213 15.615 16.024)" r=".492"/><circle cx="16.728" cy="15.449" transform="rotate(-15.212 16.727 15.449)" r=".492"/><circle cx="17.324" cy="11.715" transform="rotate(-15.213 17.327 11.716)" r=".492"/><circle cx="15.612" cy="9.789" transform="rotate(-15.213 15.614 9.79)" r=".492"/><circle cx="17.324" cy="14.017" transform="rotate(-15.213 17.328 14.019)" r=".492"/><circle cx="18.465" cy="15.312" transform="rotate(-15.213 18.469 15.314)" r=".492"/><circle cx="19.67" cy="15" transform="rotate(-15.213 19.674 15.002)" r=".492"/><circle cx="18.307" cy="16.68" transform="rotate(-15.213 18.311 16.682)" r=".492"/><circle cx="19.743" cy="16.513" transform="rotate(-15.213 19.747 16.516)" r=".492"/><circle cx="20.555" cy="14.157" transform="rotate(-15.219 20.552 14.155)" r=".492"/><circle cx="14.229" cy="9.014" transform="rotate(-15.213 14.231 9.015)" r=".492"/><circle cx="20.123" cy="12.584" transform="rotate(-65.847 20.122 12.583)" r=".492"/><circle cx="18.859" cy="11.297" transform="rotate(-15.213 18.863 11.3)" r=".492"/><circle cx="17.324" cy="9.789" transform="rotate(-15.213 17.327 9.79)" r=".492"/><circle cx="14.138" cy="15.902" transform="rotate(-15.213 14.14 15.905)" r=".492"/><circle cx="13.358" cy="17.402" transform="rotate(-15.213 13.36 17.405)" r=".492"/><circle cx="13.85" cy="14.649" transform="rotate(-15.213 13.852 14.651)" r=".492"/><circle cx="15.066" cy="17.894" transform="rotate(-15.213 15.07 17.897)" r=".492"/><circle cx="10.101" cy="17.171" transform="rotate(-15.213 10.103 17.174)" r=".492"/><circle cx="16.103" cy="19.749" transform="rotate(-15.213 16.106 19.752)" r=".492"/><circle cx="17.816" cy="20.241" transform="rotate(-15.212 17.815 20.24)" r=".492"/><circle cx="15.298" cy="20.925" transform="rotate(-15.212 15.297 20.925)" r=".492"/><circle cx="16.623" cy="16.882" transform="rotate(-15.212 16.622 16.881)" r=".492"/><circle cx="13.85" cy="19.05" transform="rotate(-15.213 13.852 19.053)" r=".492"/><circle cx="13.85" cy="20.362" transform="rotate(-15.213 13.852 20.365)" r=".492"/><circle cx="11.821" cy="19.602" transform="rotate(-15.213 11.824 19.605)" r=".492"/><circle cx="17.816" cy="17.894" transform="rotate(-15.212 17.815 17.893)" r=".492"/><circle cx="18.934" cy="18.791" transform="rotate(-15.213 18.937 18.795)" r=".492"/><circle cx="20.162" cy="18.169" transform="rotate(-15.212 20.16 18.168)" r=".492"/><circle cx="12.201" cy="12.238" transform="rotate(-15.213 12.203 12.24)" r=".492"/><circle cx="9.21" cy="14.696" transform="rotate(-15.212 9.21 14.695)" r=".492"/><circle cx="10.592" cy="12.624" transform="rotate(-15.212 10.593 12.624)" r=".492"/><circle cx="10.199" cy="11.34" transform="rotate(-15.213 10.201 11.342)" r=".492"/><circle cx="11.096" cy="14.017" transform="rotate(-15.213 11.098 14.02)" r=".492"/><path class="st0" d="M7.812 2.922l3.251 5.745 2.724-.783s-2.719-4.286-5.975-4.962zM.593 15.167l7.165-.027.349-2.492c.001 0-4.148-.368-7.514 2.519zm10.718 6.21l-3.327 6.125s-.823-11.143 3.327-6.125zm7.646-.372l3.439 6.555c0 .001-10.389-5.08-3.439-6.555zm2.984-6.276l7.474.125c.001 0-9.115 6.195-7.474-.125zm-3.499-6.061l3.533-6.052c0-.001.707 11.274-3.533 6.052z"/><path class="st0" d="M7.812 2.848l3.124 5.819 2.549-.839c-.001 0-1.7-3.177-5.673-4.98z"/><path class="st1" d="M14.853.827v6.864s-1.282.83-2.564-2.219L14.853.827zM2.942 8.237l.998.553 4.854 2.85s-.83 1.697-3.426.714L2.667 8.129l.275.108zm5.909 10.48l-6.018 3.499c0 .001 8.164.748 6.018-3.499zm6.392 3.496l-.069 7.518s4.684-6.671.069-7.518zm5.97-3.827l6.507 3.8c0-.001-2.414-7.262-6.507-3.8zm6.123-10.694l-6.123 3.606s-1.419-.511.132-2.077l.5-1.425 5.491-.104z"/><path d="M29.731 14.821a.394.394 0 00-.17-.317c-.099-.068-2.265-1.559-4.511-2.369 1.542-1.784 2.593-4.187 2.641-4.297a.394.394 0 00-.328-.548c-.12-.011-2.742-.217-5.091.204.443-2.316.151-4.923.138-5.042a.393.393 0 00-.559-.311c-.109.051-2.482 1.183-4.307 2.723-.774-2.227-2.33-4.339-2.401-4.436A.388.388 0 0014.82.27a.393.393 0 00-.316.169c-.068.099-1.559 2.266-2.368 4.512-1.784-1.542-4.187-2.594-4.298-2.641a.39.39 0 00-.358.024.39.39 0 00-.191.304c-.01.12-.217 2.742.205 5.092-2.315-.444-4.924-.152-5.042-.139a.395.395 0 00-.311.559c.051.109 1.183 2.482 2.723 4.307-2.228.774-4.34 2.33-4.436 2.401a.393.393 0 00.011.639c.099.068 2.266 1.558 4.512 2.368-1.542 1.784-2.593 4.188-2.641 4.297a.393.393 0 00.329.548c.06.005.755.06 1.731.06.963 0 2.194-.064 3.361-.273-.446 2.318-.154 4.932-.14 5.051a.395.395 0 00.559.311c.109-.051 2.483-1.182 4.307-2.722.774 2.227 2.33 4.338 2.402 4.435.074.1.191.159.315.159h.007a.394.394 0 00.316-.17c.068-.098 1.559-2.265 2.368-4.511 1.784 1.542 4.188 2.593 4.297 2.641a.392.392 0 00.548-.328c.01-.12.218-2.747-.205-5.098.988.189 2.025.252 2.904.252 1.183 0 2.071-.1 2.139-.108a.393.393 0 00.311-.559c-.051-.109-1.182-2.482-2.722-4.307 2.227-.774 4.339-2.329 4.435-2.401a.394.394 0 00.159-.321zm-3.003-6.78c-.418.853-1.339 2.587-2.495 3.831-.079-.022-.148-.03-.225-.049a7.126 7.126 0 00-.546-.119c-.093-.016-.18-.024-.27-.035a4.624 4.624 0 00-.476-.039c-.038-.001-.083-.01-.12-.01-.056 0-.113.015-.169.017a4.295 4.295 0 00-.516.052c-.053.009-.103.005-.156.016a7.61 7.61 0 00-.804-1.289c.054-.058.098-.118.147-.177.039-.047.081-.094.117-.141.125-.16.24-.322.337-.489.111-.193.211-.41.304-.643.031-.078.057-.167.087-.25.045-.126.093-.246.132-.382 1.698-.361 3.693-.333 4.653-.293zm-6.322 10.955a6.79 6.79 0 01-1.045 1.124c-.006.005-.014.007-.02.012-.009.009-.018.017-.026.027a6.718 6.718 0 01-1.575.986c-.011.003-.015.014-.025.018-.01.004-.02.002-.03.007-.461.201-.957.35-1.473.445-.71.13-1.345.138-1.971.069a6.74 6.74 0 01-3.236-1.277h-.001a6.74 6.74 0 01-2.172-2.72v-.002a6.628 6.628 0 01-.445-1.473A6.567 6.567 0 018.27 15a6.688 6.688 0 01.398-2.258 6.734 6.734 0 01.926-1.737 6.724 6.724 0 012.721-2.175 6.73 6.73 0 011.474-.446 6.66 6.66 0 013.467.282l.002.001a6.796 6.796 0 012.866 1.975c.43.506.782 1.069 1.047 1.672.201.463.351.958.444 1.473l.001.001c.002.008-.001.017.001.025l.008.028c.071.409.105.787.105 1.159 0 .239-.015.473-.04.705-.004.015 0 .029-.002.043l-.004.011a6.753 6.753 0 01-1.278 3.237zm.97-11.095c-.134.521-.305.963-.507 1.312a3.665 3.665 0 01-.394.54c-.015.018-.034.036-.05.054a7.523 7.523 0 00-2.902-1.881l-.004-.001a7.468 7.468 0 00-1.195-.321l.007-.022c.063-.161.135-.313.218-.457.229-.397.589-.828 1.071-1.281 1.307-1.228 3.167-2.272 4.055-2.736.071.991.143 3.092-.299 4.793zm-6.54-6.537c.53.788 1.571 2.454 2.07 4.077-.133.131-.236.257-.35.384-.068.076-.148.155-.209.23-.188.23-.35.455-.478.678a4.215 4.215 0 00-.311.688c-.011.029-.027.053-.038.083a7.151 7.151 0 00-1.518.05 4.557 4.557 0 00-.399-.924 5.821 5.821 0 00-.842-1.091c.541-1.65 1.561-3.365 2.075-4.175zM8.041 3.273c.892.436 2.748 1.425 3.999 2.656.385.378.682.747.883 1.095.119.206.213.44.296.691-.42.102-.831.227-1.218.395a7.51 7.51 0 00-2.741 2.049l-.016-.018a3.569 3.569 0 01-.289-.42c-.23-.399-.423-.926-.574-1.567l-.001-.002c-.409-1.745-.382-3.878-.339-4.879zm-.367 5.296c.046.177.102.325.154.484.033.101.062.213.098.307.105.277.219.53.348.753.124.214.275.416.442.614.021.025.034.052.056.077-.284.42-.523.867-.717 1.336-.073-.016-.141-.022-.212-.035-.089-.016-.181-.033-.269-.044a4.622 4.622 0 00-.422-.028c-.074-.002-.149-.01-.224-.008a4.752 4.752 0 00-.636.06c-.08.013-.169.034-.251.051-.117.023-.229.041-.353.071-1.16-1.294-2.135-3.035-2.579-3.885.947-.064 2.907-.132 4.565.247zm-2.01 4.459c.229-.063.438-.11.639-.146.058-.01.112-.014.169-.022.14-.02.278-.035.412-.04.068-.003.136-.001.204 0a3.604 3.604 0 01.578.053c.04.007.083.019.124.027a7.346 7.346 0 00-.256 1.254c-.031.278-.05.56-.05.846 0 .417.038.837.115 1.283 0 .03.005.06.012.09v.006l.013.042c.074.386.186.758.316 1.121-.629.096-1.23.037-2.043-.194l-.001-.001-.132-.038h-.001l-.002-.001c-1.717-.517-3.551-1.607-4.397-2.144.824-.555 2.608-1.668 4.3-2.136zM3.273 21.96c.418-.855 1.345-2.589 2.504-3.834.612.167 1.149.255 1.629.255.276 0 .562-.037.852-.094.223.456.48.895.793 1.299-.055.059-.099.12-.15.18-.038.045-.078.091-.114.137-.125.16-.24.323-.337.49a4.929 4.929 0 00-.305.643c-.031.077-.057.165-.085.247-.045.127-.093.247-.133.385-1.701.358-3.696.331-4.654.292zm5.351.14c.135-.523.306-.965.507-1.312.107-.186.242-.364.394-.542l.048-.052c.292.303.613.586.96.843l.002.002c.593.44 1.246.787 1.942 1.036.398.142.8.237 1.202.31a3.498 3.498 0 01-.229.49c-.227.393-.579.816-1.048 1.26l-.007.009-.005.003c-.006.005-.007.014-.013.02-.008.008-.022.01-.029.019-1.305 1.215-3.143 2.247-4.025 2.707-.068-.992-.14-3.091.301-4.793zm6.54 6.536c-.532-.789-1.573-2.461-2.071-4.088.447-.443.799-.865 1.039-1.28.139-.24.247-.503.342-.781a7.18 7.18 0 001.523-.04c.012.038.032.067.045.104.099.294.211.571.354.818.113.195.25.391.405.588.049.062.11.125.163.188.09.105.171.209.274.316-.54 1.651-1.56 3.365-2.074 4.175zm6.796-1.908c-.893-.436-2.749-1.425-4-2.656-.385-.38-.683-.749-.882-1.096a3.704 3.704 0 01-.296-.69 7.337 7.337 0 001.149-.37l.024-.003a.405.405 0 00.099-.045 7.548 7.548 0 001.769-1.107.307.307 0 00.067-.053c.008-.007.01-.017.017-.025.296-.256.576-.534.834-.84l.018.02c.108.136.204.274.286.417.23.398.423.926.574 1.568.41 1.745.383 3.879.341 4.88zm.366-5.296c-.046-.176-.101-.323-.153-.481-.033-.102-.063-.216-.099-.312a5.15 5.15 0 00-.348-.752 4.354 4.354 0 00-.442-.614c-.021-.025-.034-.052-.056-.077.283-.42.523-.867.716-1.336.068.015.132.02.198.033.082.015.166.03.246.041.132.017.265.026.396.031.053.002.108.013.16.013.019 0 .042-.005.061-.005a4.82 4.82 0 00.695-.057l.018-.004c.19-.03.385-.068.593-.119 1.16 1.293 2.135 3.034 2.579 3.885-.947.065-2.907.134-4.564-.246zm2.011-4.46c-.229.063-.438.11-.64.146-.057.01-.111.014-.167.022-.142.02-.281.035-.417.041-.066.003-.131.001-.196 0a3.786 3.786 0 01-.581-.052c-.041-.007-.084-.019-.125-.028.116-.395.196-.794.244-1.189l.004-.005a.393.393 0 00.013-.117c.027-.26.045-.523.045-.79a7.471 7.471 0 00-.133-1.377c-.001-.006-.005-.009-.007-.015a7.512 7.512 0 00-.308-1.152c.033-.005.067-.014.099-.019.066-.008.133-.012.2-.016a3.627 3.627 0 01.592.006c.126.011.256.031.389.054.073.013.143.022.219.038.211.045.43.1.67.173.006.002.012.001.017.003.005.001.009.006.013.007 1.709.521 3.525 1.601 4.366 2.135-.821.555-2.606 1.668-4.297 2.135z"/></svg>